<?xml version="1.0" standalone="no"?>
<!DOCTYPE svg PUBLIC "-//W3C//DTD SVG 20010904//EN"
 "http://www.w3.org/TR/2001/REC-SVG-20010904/DTD/svg10.dtd">
<svg version="1.0" xmlns="http://www.w3.org/2000/svg"
 width="1920.000000pt" height="1920.000000pt" viewBox="0 0 1920.000000 1920.000000"
 preserveAspectRatio="xMidYMid meet">
<metadata>
Created by potrace 1.14, written by Peter Selinger 2001-2017
</metadata>
<g transform="translate(0.000000,1920.000000) scale(0.100000,-0.100000)"
fill="#000000" stroke="none">
<path d="M9320 13900 c0 -3 -22 -5 -49 -4 -44 0 -245 -22 -373 -41 -27 -4 -48
-13 -48 -19 0 -7 -3 -7 -8 -1 -5 7 -24 7 -60 0 -29 -6 -51 -13 -49 -15 3 -3
-11 -6 -31 -7 -35 -3 -74 -9 -79 -13 -2 -2 -6 -3 -10 -4 -144 -33 -163 -39
-157 -48 4 -7 2 -8 -5 -4 -16 10 -112 -15 -104 -27 3 -6 1 -7 -5 -3 -16 9
-154 -33 -147 -44 3 -6 -1 -7 -9 -4 -8 3 -21 2 -28 -2 -7 -5 -17 -9 -23 -10
-19 -4 -170 -62 -225 -87 -30 -14 -77 -35 -105 -47 -27 -12 -72 -34 -100 -48
-27 -14 -65 -32 -83 -42 -18 -9 -29 -20 -25 -25 4 -4 3 -5 -4 -1 -16 9 -64
-14 -56 -28 3 -6 3 -8 -2 -4 -7 7 -131 -54 -145 -71 -3 -3 -21 -15 -40 -25
-51 -28 -286 -185 -313 -210 -14 -11 -33 -26 -43 -33 -11 -6 -18 -16 -17 -22
2 -6 -3 -8 -11 -5 -7 3 -23 -7 -36 -23 -12 -15 -23 -26 -25 -23 -2 3 -22 -11
-45 -30 -69 -58 -143 -124 -170 -150 -14 -14 -47 -44 -72 -67 -25 -23 -43 -44
-40 -47 3 -3 0 -6 -7 -6 -6 0 -23 -12 -37 -27 -14 -16 -51 -55 -82 -88 -83
-88 -129 -141 -200 -230 -34 -44 -71 -89 -82 -100 -11 -12 -20 -25 -20 -30 0
-4 -7 -15 -15 -24 -20 -21 -105 -140 -105 -146 0 -3 -9 -15 -20 -27 -11 -12
-20 -28 -20 -35 0 -7 -4 -13 -10 -13 -5 0 -10 -7 -10 -15 0 -8 -4 -15 -10 -15
-5 0 -10 -5 -10 -11 0 -6 -13 -29 -28 -52 -16 -23 -40 -62 -53 -87 -13 -25
-27 -47 -30 -50 -6 -5 -192 -382 -209 -425 -14 -32 -24 -69 -22 -77 1 -5 -2
-8 -6 -8 -6 0 -41 -80 -48 -110 0 -3 -4 -12 -7 -20 -9 -20 -67 -190 -72 -213
-2 -10 -15 -55 -29 -100 -27 -90 -49 -184 -76 -322 -5 -27 -12 -61 -14 -74 -3
-12 -8 -44 -11 -69 -3 -25 -7 -48 -10 -50 -3 -3 1 -12 8 -20 9 -13 9 -14 0 -8
-14 7 -14 5 -18 -85 -1 -26 -5 -50 -7 -55 -3 -5 -9 -49 -13 -99 -4 -49 -9 -92
-11 -94 -2 -2 1 -13 7 -24 8 -14 8 -17 0 -13 -10 7 -9 -512 3 -614 2 -25 7
-72 11 -105 10 -97 12 -107 23 -180 6 -38 13 -83 16 -100 2 -16 19 -93 36
-170 17 -77 34 -152 37 -167 3 -15 8 -26 12 -24 4 3 7 -3 7 -12 2 -50 21 -113
38 -124 8 -5 7 -8 -1 -8 -8 0 -8 -7 0 -29 6 -17 14 -28 18 -25 4 2 5 -5 2 -15
-3 -10 1 -30 8 -42 7 -13 14 -26 14 -29 4 -29 32 -100 39 -100 5 0 7 -3 3 -6
-8 -8 14 -68 71 -194 16 -36 40 -88 52 -117 13 -29 28 -49 33 -46 6 3 7 1 3
-5 -7 -12 39 -112 58 -124 6 -4 8 -8 3 -8 -8 0 23 -60 74 -145 16 -27 33 -57
36 -65 4 -8 9 -17 13 -20 3 -3 21 -31 39 -63 36 -64 222 -328 251 -357 3 -3
26 -32 51 -65 70 -90 141 -165 150 -159 5 3 6 -3 2 -12 -4 -12 -3 -15 5 -10 7
4 12 1 12 -6 0 -14 198 -215 300 -305 30 -26 64 -57 76 -69 12 -12 51 -43 86
-70 34 -27 65 -51 68 -54 29 -29 293 -215 357 -251 32 -18 60 -36 63 -39 3 -4
12 -9 20 -13 8 -3 38 -20 65 -36 89 -54 142 -80 149 -74 3 4 6 2 6 -4 0 -13
221 -119 395 -188 39 -15 89 -36 111 -46 23 -10 52 -20 65 -22 26 -4 52 -13
86 -29 12 -6 29 -8 38 -4 9 3 14 2 11 -3 -5 -7 222 -75 292 -87 15 -3 42 -10
60 -15 19 -6 44 -9 57 -6 14 2 22 0 19 -4 -3 -5 6 -10 20 -10 14 -1 29 -2 34
-3 44 -11 74 -17 110 -21 24 -3 53 -7 65 -10 21 -6 36 -7 157 -21 30 -3 75 -8
100 -10 102 -12 621 -13 614 -3 -4 8 -1 8 13 0 11 -6 22 -9 24 -7 2 2 45 7 94
11 50 4 94 10 99 13 5 2 29 6 55 7 89 4 92 5 85 18 -5 9 -4 9 5 1 14 -13 122
4 133 20 5 8 8 8 8 1 0 -8 17 -8 54 -1 30 6 53 13 51 16 -2 3 13 6 33 7 35 3
74 9 80 13 1 2 5 3 10 4 134 31 161 39 157 47 -3 5 1 6 9 3 8 -3 32 0 53 7 21
7 43 14 48 15 50 9 154 47 150 54 -3 6 1 7 9 4 8 -3 21 -2 28 2 7 5 18 9 23
10 22 4 179 65 238 93 34 16 85 38 112 51 69 30 159 74 165 80 3 3 31 18 63
33 34 17 54 33 51 39 -4 7 -2 8 4 4 10 -6 95 35 112 54 3 3 26 16 53 30 26 13
47 27 47 30 0 4 16 14 35 23 19 9 35 21 35 27 0 5 4 9 8 8 10 -4 82 44 82 55
0 4 6 7 13 7 6 0 59 37 117 81 95 72 132 102 233 192 17 15 35 27 40 27 5 0 6
7 3 16 -3 8 -2 12 4 9 6 -3 40 23 76 59 37 36 68 66 70 66 5 0 38 35 144 151
47 51 92 100 100 109 8 8 43 51 78 95 34 44 71 89 82 100 11 12 20 25 20 30 0
4 7 15 15 24 20 21 105 140 105 146 0 3 9 15 20 27 11 12 20 28 20 35 0 7 5
13 10 13 6 0 10 7 10 15 0 8 5 15 10 15 6 0 10 5 10 11 0 6 13 29 28 52 16 23
40 62 53 87 13 25 27 47 30 50 6 5 192 382 209 425 14 32 24 69 22 78 -1 4 2
7 6 7 6 0 45 91 47 110 0 3 3 10 6 15 4 6 16 42 28 80 13 39 25 77 28 85 4 8
7 18 8 23 2 4 3 8 5 10 1 1 3 9 5 18 1 8 14 53 28 100 28 92 50 185 77 324 5
28 12 61 14 74 3 14 8 45 11 70 3 25 7 55 9 66 3 19 15 101 22 155 20 157 26
667 10 830 -5 47 -8 95 -8 108 1 12 -2 22 -6 22 -4 0 -7 19 -6 43 0 23 -2 46
-5 51 -2 5 -5 23 -6 40 -4 52 -50 295 -69 361 -1 6 -9 38 -16 72 -8 39 -17 60
-23 56 -6 -4 -8 0 -4 9 7 20 -23 139 -34 132 -5 -3 -6 1 -3 9 2 7 -1 27 -7 43
-7 16 -13 36 -15 44 -3 20 -41 129 -53 155 -5 11 -22 52 -36 90 -52 136 -210
465 -229 477 -6 4 -8 8 -4 8 4 0 -4 16 -17 36 -14 20 -25 40 -25 45 0 7 -72
128 -92 154 -5 6 -38 55 -74 110 -60 90 -111 160 -139 191 -5 7 -19 25 -30 40
-65 92 -279 330 -404 448 -35 34 -74 71 -87 84 -13 12 -28 22 -34 22 -5 0 -10
4 -10 9 0 11 -200 181 -223 190 -5 2 -18 11 -28 20 -35 32 -107 85 -157 116
-9 6 -22 16 -30 23 -7 7 -18 9 -24 6 -6 -4 -8 -3 -5 2 3 6 -45 41 -106 79
-150 94 -176 107 -190 99 -7 -4 -9 -3 -4 1 8 10 -43 46 -55 39 -4 -3 -8 -1 -8
4 0 9 -100 58 -112 54 -5 -1 -8 2 -8 7 0 14 -69 43 -83 35 -6 -4 -9 -3 -4 1
10 11 -91 58 -105 49 -6 -4 -8 -2 -4 4 3 6 -3 14 -15 17 -12 4 -38 14 -58 23
-20 9 -38 16 -41 16 -3 1 -24 9 -45 18 -75 31 -180 68 -196 68 -9 0 -19 3 -23
7 -3 4 -14 8 -24 10 -20 4 -31 8 -52 16 -61 24 -359 97 -505 123 -85 15 -274
39 -390 50 -128 11 -175 11 -175 0 0 -7 -4 -6 -8 2 -6 9 -61 12 -235 10 -125
-1 -227 -5 -227 -8z m-3559 -2627 c13 -16 12 -17 -3 -4 -10 7 -18 15 -18 17 0
8 8 3 21 -13z m2724 -2313 c3 -5 1 -10 -4 -10 -6 0 -11 5 -11 10 0 6 2 10 4
10 3 0 8 -4 11 -10z m2158 -1355 c-3 -9 -8 -14 -10 -11 -3 3 -2 9 2 15 9 16
15 13 8 -4z m1527 -559 c0 -3 -4 -8 -10 -11 -5 -3 -10 -1 -10 4 0 6 5 11 10
11 6 0 10 -2 10 -4z"/>
</g>
</svg>
